<?xml version="1.0" standalone="no"?>
<!DOCTYPE svg PUBLIC "-//W3C//DTD SVG 20010904//EN"
 "http://www.w3.org/TR/2001/REC-SVG-20010904/DTD/svg10.dtd">
<svg version="1.0" xmlns="http://www.w3.org/2000/svg"
 width="128.000000pt" height="128.000000pt" viewBox="0 0 128.000000 128.000000"
 preserveAspectRatio="xMidYMid meet">
<metadata>
Created by potrace 1.11, written by Peter Selinger 2001-2013
</metadata>
<g transform="translate(0.000000,128.000000) scale(0.100000,-0.100000)"
fill="#000000" stroke="none">
<path d="M978 1266 c-25 -18 -22 -29 3 -16 11 7 32 9 45 6 42 -11 51 -99 16
-158 -19 -33 -29 -34 -62 -10 -19 13 -45 17 -105 17 -70 0 -85 -3 -122 -27
-23 -15 -44 -32 -47 -37 -4 -6 -79 26 -180 75 -155 77 -178 86 -232 87 -117 2
-206 -48 -259 -144 -26 -47 -30 -64 -29 -129 0 -63 5 -84 28 -126 30 -56 107
-140 137 -149 18 -6 17 -10 -10 -63 -51 -101 -64 -150 -62 -242 1 -47 3 -94 5
-105 1 -11 -4 -49 -12 -84 -19 -85 -15 -87 98 -62 20 4 44 7 55 5 126 -19 209
-7 322 46 72 33 83 36 88 22 13 -40 116 -129 175 -153 54 -22 167 -17 216 9
106 55 157 138 157 253 0 67 -3 76 -86 243 -82 167 -85 175 -67 191 10 9 28
40 40 68 18 41 21 64 17 113 -2 34 -12 73 -21 85 -9 13 -16 28 -16 34 0 20 61
47 106 47 69 2 108 -47 69 -86 -25 -24 -17 -31 9 -7 30 29 29 76 -3 102 -41
34 -132 23 -178 -20 -16 -15 -24 -17 -31 -8 -8 9 -4 19 13 35 43 41 49 142 11
180 -19 20 -67 24 -88 8z"/>
</g>
</svg>
