<svg height="512pt" viewBox="0 0 512 512.0015" width="512pt" xmlns="http://www.w3.org/2000/svg" xmlns:xlink="http://www.w3.org/1999/xlink"><linearGradient id="a"><stop offset="0" stop-color="#575c55"/><stop offset=".3899" stop-color="#535656"/><stop offset=".8857" stop-color="#484759"/><stop offset="1" stop-color="#45425a"/></linearGradient><linearGradient id="b" gradientTransform="matrix(.709873 .709873 -.709873 .709873 232.415238 -115.807516)" gradientUnits="userSpaceOnUse" x1="252.6541" x2="315.3358" xlink:href="#a" y1="477.6237" y2="540.3054"/><linearGradient id="c" gradientTransform="matrix(.709873 .709873 -.709873 .709873 232.415238 -115.807516)" gradientUnits="userSpaceOnUse" x1="197.2614" x2="406.0611" y1="275.0191" y2="328.0748"><stop offset="0" stop-color="#ffe548"/><stop offset=".2472" stop-color="#ffe042"/><stop offset=".5621" stop-color="#ffd133"/><stop offset=".9123" stop-color="#ffb919"/><stop offset="1" stop-color="#ffb211"/></linearGradient><linearGradient id="d" gradientTransform="matrix(.709873 .709873 -.709873 .709873 232.415238 -115.807516)" gradientUnits="userSpaceOnUse" x1="385.0262" x2="86.4538" y1="376.6221" y2="73.7964"><stop offset="0" stop-color="#ffb211" stop-opacity="0"/><stop offset=".1784" stop-color="#ff931e" stop-opacity=".176471"/><stop offset=".3999" stop-color="#ff742c" stop-opacity=".4"/><stop offset=".6151" stop-color="#ff5d36" stop-opacity=".615686"/><stop offset=".8191" stop-color="#ff503c" stop-opacity=".819608"/><stop offset="1" stop-color="#ff4b3e"/></linearGradient><linearGradient id="e" gradientTransform="matrix(.709873 .709873 -.709873 .709873 232.415238 -115.807516)" gradientUnits="userSpaceOnUse" x1="193.3368" x2="325.553" xlink:href="#a" y1="157.5958" y2="157.5958"/><linearGradient id="f" gradientTransform="matrix(.709873 .709873 -.709873 .709873 232.415238 -115.807516)" gradientUnits="userSpaceOnUse" x1="193.3368" x2="325.553" xlink:href="#a" y1="295.6601" y2="295.6601"/><linearGradient id="g" gradientTransform="matrix(.709873 .709873 -.709873 .709873 232.415238 -115.807516)" gradientUnits="userSpaceOnUse" x1="193.3368" x2="325.553" xlink:href="#a" y1="433.7243" y2="433.7243"/><linearGradient id="h"><stop offset="0" stop-color="#f2e9dc"/><stop offset=".1658" stop-color="#e7e7df"/><stop offset=".4571" stop-color="#cae2e6"/><stop offset=".8371" stop-color="#9ad9f1"/><stop offset="1" stop-color="#84d5f7"/></linearGradient><linearGradient id="i" gradientTransform="matrix(.709873 .709873 -.709873 .709873 232.415238 -115.807516)" gradientUnits="userSpaceOnUse" x1="39.2225" x2="260.407" xlink:href="#h" y1="12.5158" y2="373.8568"/><linearGradient id="j"><stop offset="0" stop-color="#f2e9dc" stop-opacity="0"/><stop offset=".2002" stop-color="#cee2e5" stop-opacity=".2"/><stop offset=".4188" stop-color="#aedded" stop-opacity=".419608"/><stop offset=".6298" stop-color="#97d8f2" stop-opacity=".631373"/><stop offset=".828" stop-color="#89d6f6" stop-opacity=".827451"/><stop offset="1" stop-color="#84d5f7"/></linearGradient><linearGradient id="k" gradientTransform="matrix(.709873 .709873 -.709873 .709873 232.415238 -115.807516)" gradientUnits="userSpaceOnUse" x1="197.8004" x2="105.9319" xlink:href="#j" y1="253.3926" y2="155.5697"/><linearGradient id="l" gradientTransform="matrix(-.709873 -.709873 -.709873 .709873 414.505328 66.282573)" gradientUnits="userSpaceOnUse" x1="-261.2561" x2="-40.0716" xlink:href="#h" y1="12.5158" y2="373.8568"/><linearGradient id="m" gradientTransform="matrix(-.709873 -.709873 -.709873 .709873 414.505328 66.282573)" gradientUnits="userSpaceOnUse" x1="-102.6782" x2="-194.5466" xlink:href="#j" y1="253.3926" y2="155.5697"/><linearGradient id="n" gradientTransform="matrix(.709873 .709873 -.709873 .709873 -1256.525336 -1231.288263)" gradientUnits="userSpaceOnUse" x1="2031.0555" x2="2107.4795" xlink:href="#a" y1="-262.143" y2="-262.143"/><linearGradient id="o" gradientTransform="matrix(-.709873 -.709873 -.709873 .709873 604.864016 630.101089)" gradientUnits="userSpaceOnUse" x1="427.3673" x2="503.7913" xlink:href="#a" y1="-262.143" y2="-262.143"/><linearGradient id="p" gradientTransform="matrix(.709873 .709873 -.709873 .709873 232.415238 -115.807516)" gradientUnits="userSpaceOnUse" x1="224.8505" x2="324.7393" xlink:href="#a" y1="44.6343" y2="144.5231"/><path d="m40.660156 398.878906c4.1875 23.039063-1.914062 49.105469-7.808594 67-2.699218 8.1875 5.085938 15.96875 13.269532 13.273438 17.894531-5.894532 43.960937-12 67-7.808594zm0 0" fill="url(#b)"/><path d="m317.144531 388.691406c-85.539062 85.539063-198.277343 111.492188-251.800781 57.96875-53.527344-53.527344-27.574219-166.261718 57.96875-251.804687 85.539062-85.539063 198.277344-111.496094 251.800781-57.96875 53.527344 53.527343 27.574219 166.261719-57.96875 251.804687zm0 0" fill="url(#c)"/><path d="m317.144531 388.691406c85.542969-85.542968 111.496094-198.28125 57.96875-251.804687-53.523437-53.527344-166.261719-27.570313-251.800781 57.96875-18.136719 18.136719-33.585938 37.496093-46.171875 57.253906l-.628906 1.621094v202.359375c56.90625 40.460937 160.652343 12.582031 240.632812-67.398438zm0 0" fill="url(#d)"/><path d="m378.003906 305.691406-171.695312-171.695312c27.285156-13.800782 54.65625-22.0625 80-24.324219l116.023437 116.019531c-2.265625 25.34375-10.527343 52.714844-24.328125 80zm0 0" fill="url(#e)"/><path d="m317.148438 388.691406c-8.894532 8.894532-18.082032 17.136719-27.46875 24.707032l-191.074219-191.078126c7.566406-9.386718 15.8125-18.570312 24.707031-27.464843s18.078125-17.136719 27.464844-24.707031l191.078125 191.078124c-7.570313 9.386719-15.8125 18.570313-24.707031 27.464844zm0 0" fill="url(#f)"/><path d="m234.148438 449.546875c-27.285157 13.800781-54.65625 22.0625-80 24.328125l-116.019532-116.023438c2.261719-25.34375 10.523438-52.714843 24.324219-80zm0 0" fill="url(#g)"/><path d="m396.445312 156.761719-236.011718-116.417969c-36.816406-18.160156-80.640625-14.566406-114.003906 9.351562-53.277344 38.1875-62.136719 113.9375-19.113282 163.394532l11.800782 13.566406c31.78125 36.535156 83.546874 48.308594 128 29.113281zm0 0" fill="url(#i)"/><path d="m92.652344 106.660156c2.371094 1.945313 4.597656 4.070313 6.828125 6.140625 2.234375 2.0625 4.460937 4.109375 6.570312 6.277344 2.152344 2.113281 4.007813 4.558594 5.878907 6.929687 1.859374 2.378907 4.015624 4.367188 6.5 6.050782 2.496093 1.636718 5.078124 3.171875 7.953124 4.523437-4.148437-.070312-8.292968-.140625-12.445312-.210937l-20.265625-.589844c-6.773437-.15625-13.460937-.730469-20.230469-.996094-13.5-.765625-26.871094-2.042968-40.210937-4.242187l-.878907 3.019531 9.789063 3.234375 4.933594 1.625c1.652343.5 3.316406.882813 4.972656 1.328125 6.652344 1.605469 13.332031 3.523438 20.042969 4.789062 13.421875 2.925782 26.921875 5.164063 40.4375 7.480469 2.609375.378907 5.226562.753907 7.839844 1.136719-1.886719 1.125-3.679688 2.378906-5.289063 3.941406-2.171875 2.09375-4.34375 4.265625-6.765625 6.066406-2.378906 1.859376-4.867188 3.585938-7.359375 5.324219-2.492187 1.746094-4.988281 3.546875-7.601563 5.152344-5.109374 3.484375-10.53125 6.472656-16.019531 9.710937l.511719 1.667969c6.367188-.621093 12.75-1.730469 19.011719-3.386719 3.148437-.792968 6.222656-1.800781 9.335937-2.789062 3.039063-1.132812 6.097656-2.277344 9.089844-3.582031 3.003906-1.277344 6.128906-2.402344 9.207031-3.671875 3.039063-1.328125 5.804688-3.140625 8.140625-5.503906.453125-.46875.902344-.949219 1.34375-1.4375 4.789063-5.320313 11.949219-7.851563 19.050782-6.976563l.132812.015625c12.363281 1.523438 24.726562 2.773438 37.101562 4.089844-2.613281 1.640625-4.941406 3.421875-7.175781 5.289062-2.269531 1.957032-4.183593 4.1875-5.753906 6.765625-1.582031 2.570313-3.140625 5.214844-5.03125 7.566407-1.84375 2.398437-3.816406 4.691406-5.796875 7-1.972656 2.3125-3.941406 4.679687-6.066406 6.890624-4.078125 4.652344-8.574219 8.902344-13.082032 13.410157l.914063 1.488281c6.011719-2.195312 11.910156-4.867188 17.558594-8.039062 2.847656-1.554688 5.574219-3.300782 8.339843-5.035157 2.65625-1.859375 5.335938-3.734375 7.902344-5.742187 2.589844-1.992188 5.332032-3.863282 7.996094-5.863282 2.609375-2.046874 4.832031-4.492187 6.503906-7.367187.726563-1.277344 1.410156-2.59375 2.027344-3.957031 3.003906-6.632813 10.152344-10.378906 17.382812-9.515625 6.210938.738281 12.421876 1.492187 18.632813 2.1875 7.871094.898437 15.757813 1.386719 23.65625 1.570312-2.222656 1.464844-4.25 3.023438-6.203125 4.652344-2.269531 1.960937-4.179688 4.1875-5.753906 6.769531-1.578125 2.570313-3.136719 5.214844-5.03125 7.566406-1.839844 2.394532-3.8125 4.6875-5.792969 6.996094-1.976563 2.316406-3.941406 4.683594-6.066406 6.894532-4.078125 4.652343-8.578125 8.902343-13.082031 13.40625l.914062 1.488281c6.011719-2.191407 11.90625-4.867188 17.558594-8.035157 2.847656-1.554687 5.570312-3.300781 8.339844-5.039062 2.65625-1.855469 5.335937-3.730469 7.902343-5.742188 2.589844-1.988281 5.332031-3.859374 7.996094-5.859374 2.609375-2.046876 4.832031-4.496094 6.503906-7.367188 1.628907-2.875 3.046875-5.941406 3.96875-9.28125 1.050781-3.832031 4.316407-6.609375 8.277344-6.863281 10.261719-.652344 28.796875-1.984375 38.601563-3.371094 13.648437-2.027344 27.289062-4.582031 40.914062-8.996094l.015625-3.140625c-13.523437-4.589844-27.027344-7.585937-40.527344-10.058594-13.5-2.4375-26.992187-4.246093-40.492187-5.523437-.238282-.023437-.476563-.046875-.714844-.070313-4.351562-.410156-7.679688-3.789062-8.34375-8.109374-.488281-3.1875-1.425781-6.195313-2.570312-9.0625-1.265626-3.074219-3.132813-5.800782-5.441407-8.183594-2.363281-2.34375-4.828125-4.570313-7.121093-6.894532-2.273438-2.34375-4.667969-4.5625-7.050782-6.765624-2.503906-2.09375-4.964844-4.195313-7.578125-6.125-5.164062-3.910157-10.644531-7.359376-16.300781-10.351563l-1.105469 1.347656c3.847657 5.078125 7.726563 9.902344 11.132813 15.066407 1.804687 2.480468 3.433594 5.089843 5.074218 7.652343 1.644532 2.558594 3.289063 5.097657 4.789063 7.722657 1.554687 2.585937 2.738281 5.417968 3.953125 8.179687 1.207031 2.769531 2.796875 5.238281 4.78125 7.488281 2.1875 2.40625 4.53125 4.707032 7.261719 6.898438-7.101563-.210938-14.207031-.191406-21.320313.0625-5.683594.257812-13.34375.515625-20.078125.71875-7.160156.214844-13.816406-4.085938-16.179687-10.84375-1.15625-3.308594-2.789063-6.421875-3.976563-9.402344-1.265625-3.074219-3.132812-5.800781-5.441406-8.183594-2.367187-2.34375-4.828125-4.570312-7.121094-6.894531-2.273437-2.339844-4.671875-4.5625-7.050781-6.761719-2.507812-2.097656-4.96875-4.199218-7.578125-6.128906-5.164063-3.90625-10.644531-7.359375-16.300781-10.351562l-1.109375 1.351562c3.851562 5.074219 7.730469 9.898438 11.136719 15.0625 1.804687 2.480469 3.429687 5.09375 5.074218 7.65625 1.644532 2.554688 3.289063 5.09375 4.789063 7.71875 1.554687 2.585938 2.738281 5.417969 3.953125 8.179688 1.207031 2.769531 2.796875 5.238281 4.78125 7.488281 3.855468 4.238281 8.148437 8.175781 14.402344 11.671875-13.503907-.042969-27.039063.035156-40.53125-.214844h-.523438c-8.210938.035156-16.011719-4.269531-19.808594-11.550781-1.074218-2.058594-2.324218-3.976563-3.65625-5.800781-1.992187-2.660157-4.484375-4.832032-7.316406-6.558594-2.875-1.679688-5.816406-3.21875-8.621094-4.894532-2.785156-1.699218-5.664062-3.25-8.515625-4.785156-2.953125-1.402344-5.863281-2.816406-8.871093-4.035156-5.980469-2.488281-12.148438-4.460938-18.375-5.941406l-.734376 1.585937c5 3.949219 9.960938 7.648438 14.550782 11.796875zm0 0" fill="url(#k)"/><path d="m355.238281 115.558594 116.421875 236.011718c18.15625 36.8125 14.5625 80.636719-9.351562 114-38.191406 53.277344-113.941406 62.140626-163.398438 19.117188l-13.566406-11.800781c-36.53125-31.78125-48.308594-83.546875-29.113281-128zm0 0" fill="url(#l)"/><path d="m405.34375 419.347656c-1.949219-2.367187-4.070312-4.597656-6.140625-6.828125-2.0625-2.234375-4.113281-4.460937-6.277344-6.570312-2.117187-2.152344-4.5625-4.007813-6.929687-5.875-2.382813-1.859375-4.371094-4.019531-6.054688-6.5-1.636718-2.5-3.167968-5.078125-4.523437-7.953125.074219 4.144531.144531 8.289062.210937 12.441406l.589844 20.265625c.160156 6.773437.734375 13.464844.996094 20.234375.769531 13.496094 2.046875 26.871094 4.242187 40.210938l-3.015625.875-3.238281-9.789063-1.625-4.933594c-.496094-1.652343-.878906-3.3125-1.324219-4.972656-1.605468-6.652344-3.523437-13.332031-4.789062-20.042969-2.929688-13.421875-5.164063-26.921875-7.480469-40.4375-.378906-2.609375-.757813-5.226562-1.136719-7.839844-1.125 1.890626-2.382812 3.679688-3.945312 5.289063-2.089844 2.175781-4.261719 4.34375-6.066406 6.765625-1.859376 2.382812-3.582032 4.867188-5.324219 7.363281-1.746094 2.488281-3.542969 4.988281-5.152344 7.597657-3.484375 5.113281-6.472656 10.53125-9.707031 16.019531l-1.671875-.507813c.621093-6.371094 1.734375-12.75 3.386719-19.015625.796874-3.144531 1.804687-6.21875 2.789062-9.335937 1.136719-3.035156 2.277344-6.097656 3.582031-9.089844 1.277344-3.003906 2.402344-6.128906 3.671875-9.207031 1.332032-3.039063 3.140625-5.804688 5.503906-8.140625.472657-.453125.949219-.902344 1.4375-1.339844 5.320313-4.789062 7.855469-11.949219 6.976563-19.054688l-.015625-.132812c-1.523438-12.363281-2.773438-24.726562-4.085938-37.101562-1.644531 2.617187-3.425781 4.945312-5.292968 7.179687-1.957032 2.269531-4.1875 4.179687-6.765625 5.753906-2.570313 1.578125-5.214844 3.136719-7.566407 5.03125-2.398437 1.839844-4.691406 3.8125-6.996093 5.792969-2.316407 1.976562-4.683594 3.941406-6.890625 6.066406-4.65625 4.078125-8.90625 8.578125-13.414063 13.082032l-1.488281-.910157c2.195312-6.011719 4.871094-11.910156 8.039062-17.558593 1.554688-2.851563 3.300782-5.574219 5.039063-8.34375 1.855469-2.65625 3.730469-5.332032 5.742187-7.902344 1.988282-2.589844 3.859376-5.332032 5.859376-7.996094 2.050781-2.609375 4.496093-4.832031 7.367187-6.503906 1.28125-.722656 2.597656-1.40625 3.957031-2.023438 6.632813-3.007812 10.378906-10.15625 9.515625-17.386718-.738281-6.210938-1.492187-12.421876-2.1875-18.632813-.898437-7.871094-1.386719-15.757813-1.570312-23.652344-1.464844 2.222657-3.023438 4.25-4.652344 6.199219-1.960937 2.273438-4.1875 4.183594-6.769531 5.753906-2.570313 1.582032-5.214844 3.140625-7.566406 5.03125-2.394532 1.839844-4.6875 3.816406-6.996094 5.796875-2.316406 1.972657-4.683594 3.941407-6.890625 6.066407-4.652344 4.078124-8.90625 8.574218-13.410157 13.078124l-1.488281-.910156c2.191407-6.011718 4.867188-11.910156 8.035157-17.558594 1.558593-2.851562 3.300781-5.574218 5.039062-8.34375 1.855469-2.65625 3.730469-5.332031 5.742188-7.902343 1.988281-2.589844 3.859374-5.332031 5.859374-7.996094 2.050782-2.609375 4.496094-4.832031 7.367188-6.503906 2.875-1.628907 5.941406-3.046875 9.28125-3.964844 3.832031-1.054687 6.613281-4.320313 6.863281-8.28125.652344-10.257813 1.984375-28.796875 3.371094-38.601563 2.027344-13.644531 4.582031-27.285156 8.996094-40.910156l3.140625-.015625c4.59375 13.523438 7.585937 27.027344 10.058594 40.523438 2.4375 13.503906 4.246093 26.996093 5.523437 40.492187.023437.238282.046875.476563.070313.714844.414062 4.355469 3.789062 7.679688 8.113281 8.34375 3.183593.492188 6.191406 1.429688 9.058593 2.570312 3.074219 1.265626 5.800782 3.132813 8.183594 5.441407 2.34375 2.367187 4.570313 4.828125 6.894532 7.125 2.34375 2.269531 4.5625 4.667969 6.765624 7.046875 2.097657 2.507812 4.195313 4.96875 6.125 7.578125 3.910157 5.164062 7.359376 10.644531 10.351563 16.304687l-1.347656 1.105469c-5.078125-3.851563-9.902344-7.730469-15.066407-11.136719-2.476562-1.804687-5.089843-3.429687-7.652343-5.074218-2.558594-1.644532-5.097657-3.289063-7.722657-4.785157-2.585937-1.554687-5.417968-2.738281-8.179687-3.957031-2.769531-1.203125-5.238281-2.796875-7.488281-4.777344-2.40625-2.1875-4.707032-4.535156-6.898438-7.265625.214844 7.101563.191406 14.207031-.0625 21.320313-.257812 5.683594-.511718 13.347656-.71875 20.082031-.214844 7.15625 4.085938 13.8125 10.847656 16.179687 3.304688 1.152344 6.417969 2.789063 9.398438 3.972657 3.074219 1.265625 5.800781 3.136719 8.183594 5.441406 2.34375 2.367187 4.570312 4.832031 6.894531 7.125 2.339844 2.269531 4.5625 4.667969 6.765625 7.046875 2.09375 2.507812 4.195312 4.96875 6.125 7.578125 3.90625 5.167969 7.359375 10.648437 10.351562 16.304687l-1.347656 1.105469c-5.078125-3.851562-9.902344-7.726562-15.066406-11.132812-2.480469-1.804688-5.09375-3.433594-7.652344-5.074219-2.558594-1.648438-5.097656-3.292969-7.722656-4.789062-2.585938-1.554688-5.417969-2.738282-8.179688-3.957032-2.769531-1.203125-5.238281-2.796875-7.488281-4.777344-4.238281-3.855468-8.175781-8.152343-11.671875-14.402343.042969 13.503906-.035156 27.035156.214844 40.527343v.527344c-.035156 8.207032 4.269531 16.007813 11.550781 19.804688 2.058594 1.074218 3.980469 2.324218 5.800781 3.65625 2.660157 1.992187 4.832032 4.484375 6.5625 7.316406 1.675782 2.875 3.214844 5.820312 4.890626 8.621094 1.699218 2.785156 3.25 5.664062 4.785156 8.515625 1.402344 2.953125 2.820312 5.863281 4.035156 8.871093 2.488281 5.980469 4.460938 12.148438 5.941406 18.375l-1.585937.734376c-3.949219-5-7.648438-9.960938-11.792969-14.550782zm0 0" fill="url(#m)"/><path d="m385.4375 110.03125c4.691406-5.785156 9.707031-11.207031 14.710938-16.644531l7.648437-7.988281c2.496094-2.625 4.738281-5.09375 6.765625-7.894532 7.96875-11.109375 12.28125-24.535156 11.789062-37.929687.019532-6.566407-1.527343-13.636719-3.714843-19.339844-2.167969-5.378906-7.007813-9.535156-12.804688-11.324219-5.800781-1.730468-12.527343-.855468-18.035156 2.78125-5.554687 3.546875-9.566406 9.863282-10.621094 17.242188-1.460937-7.359375 1.269531-15.726563 7.160157-21.46875 5.886718-5.683594 14.835937-8.644532 23.410156-7.023438 8.609375 1.328125 16.410156 7.320313 20.421875 15.304688 3.433593 7.847656 5 15.414062 5.300781 23.539062.066406 8-1.132812 16.039063-3.90625 23.523438-2.898438 7.417968-6.945312 14.40625-12.316406 20.1875-2.671875 2.851562-5.625 5.597656-8.640625 7.839844l-8.859375 6.621093c-6.003906 4.300781-11.992188 8.625-18.308594 12.574219zm0 0" fill="url(#n)"/><path d="m401.96875 126.5625c5.789062-4.6875 11.207031-9.707031 16.644531-14.707031l7.988281-7.648438c2.625-2.496093 5.09375-4.738281 7.894532-6.769531 11.109375-7.96875 24.535156-12.277344 37.929687-11.789062 6.566407-.019532 13.636719 1.53125 19.34375 3.71875 5.378907 2.167968 9.53125 7.007812 11.320313 12.800781 1.734375 5.800781.855468 12.527343-2.78125 18.039062-3.546875 5.554688-9.859375 9.566407-17.238282 10.621094 7.355469 1.460937 15.726563-1.269531 21.464844-7.160156 5.683594-5.886719 8.648438-14.835938 7.023438-23.414063-1.328125-8.609375-7.316406-16.40625-15.300782-20.417968-7.851562-3.433594-15.417968-5.003907-23.542968-5.300782-8-.066406-16.035156 1.132813-23.523438 3.902344-7.414062 2.902344-14.40625 6.945312-20.1875 12.320312-2.851562 2.671876-5.59375 5.621094-7.835937 8.636719l-6.621094 8.859375c-4.304687 6.007813-8.625 11.996094-12.578125 18.308594zm0 0" fill="url(#o)"/><path d="m417.023438 229.820312c-37.234376 37.234376-172.078126-97.605468-134.84375-134.84375 37.238281-37.234374 97.609374-37.234374 134.84375 0 37.234374 37.238282 37.234374 97.609376 0 134.84375zm0 0" fill="url(#p)"/></svg>